<svg width="168" height="167" viewBox="0 0 168 167" fill="none" xmlns="http://www.w3.org/2000/svg">
<circle cx="84" cy="83.5" r="83.5" fill="#FDF5F4"/>
<path d="M64.5 81C64.5 79.8954 65.3954 79 66.5 79H114.5V121C114.5 122.105 113.605 123 112.5 123H66.5C65.3954 123 64.5 122.105 64.5 121V81Z" fill="#F1AEA8"/>
<path d="M54.5172 128.29V39.8125C54.5172 38.3731 55.6843 37.2059 57.1238 37.2059H111.704C113.143 37.2059 114.31 38.3731 114.31 39.8125V128.29C114.31 129.639 113.216 130.734 111.866 130.734H56.9617C55.6112 130.734 54.5172 129.639 54.5172 128.29Z" stroke="#DB3525" stroke-width="2" stroke-miterlimit="10" stroke-linejoin="round"/>
<path d="M114.309 67.7276V116.697C114.309 119.932 111.686 122.555 108.45 122.555H89.9562C90.116 121.149 90.331 119.752 90.6135 118.363C90.6214 118.323 90.6293 118.284 90.6383 118.245C91.5386 113.882 93.1053 109.495 92.4446 105.111C92.43 105.008 92.34 104.932 92.2353 104.932H76.5912C76.4865 104.932 76.3965 105.008 76.3818 105.111C75.9936 107.684 76.3728 110.258 76.9345 112.828C77.3295 114.636 77.8157 116.443 78.1882 118.245C78.1961 118.284 78.204 118.323 78.213 118.363C78.4955 119.752 78.7105 121.149 78.8703 122.555H60.3764C57.1407 122.555 54.5172 119.932 54.5172 116.697V67.7276C54.5172 64.4918 57.1407 61.8683 60.3764 61.8683H108.45C111.686 61.8683 114.309 64.4907 114.309 67.7276ZM63.5841 61.8683L61.4389 37.2069H107.388L105.242 61.8683H63.5841Z" stroke="#DB3525" stroke-width="2" stroke-miterlimit="10" stroke-linejoin="round"/>
<path d="M62.1043 49.011C67.4424 46.7274 73.4041 45.9205 79.1575 46.7027C83.8823 47.3453 88.4146 49.0257 93.1292 49.7302C97.8449 50.4359 103.067 50.0082 106.72 46.9458M66.7019 68.4109L63.5911 61.8685H105.236L102.123 68.3265C101.846 68.9017 101.412 69.3873 100.872 69.7278C100.332 70.0684 99.7069 70.2501 99.0683 70.2522L69.7879 70.3534C69.1424 70.3552 68.5096 70.1736 67.9632 69.8297C67.4169 69.4858 66.9794 68.9937 66.7019 68.4109ZM80.2492 77.9268V70.3602H88.5778V77.9268C88.5778 78.3927 88.2007 78.7698 87.7348 78.7698H81.0933C80.6274 78.7698 80.2492 78.3927 80.2492 77.9268Z" stroke="#DB3525" stroke-width="2" stroke-miterlimit="10" stroke-linejoin="round"/>
<path d="M76.7211 113.046C77.7926 111.879 79.4448 111.09 81.2005 110.908C83.2061 110.7 85.2027 111.25 87.2184 111.38C89.2331 111.511 91.5887 111.032 92.4463 109.513" stroke="#DB3525" stroke-width="2" stroke-miterlimit="10"/>
<path d="M90.6384 118.243C90.6305 118.283 90.6227 118.322 90.6137 118.362C90.3312 119.75 90.1162 121.148 89.9564 122.554C89.8247 123.713 89.7324 124.878 89.6728 126.044C89.612 127.212 89.585 128.379 89.5861 129.549C89.5861 130.203 89.0594 130.733 88.4055 130.733H80.4213C79.7674 130.733 79.2407 130.203 79.2407 129.549C79.2418 128.379 79.2148 127.212 79.1541 126.044C79.0944 124.878 79.0021 123.714 78.8704 122.554C78.7106 121.148 78.4957 119.75 78.2132 118.362C78.2053 118.322 78.1974 118.283 78.1884 118.243C77.8159 116.441 77.3297 114.635 76.9346 112.826C76.373 110.257 75.9937 107.684 76.382 105.11C76.3966 105.007 76.4867 104.931 76.5913 104.931H92.2355C92.3401 104.931 92.4302 105.007 92.4448 105.11C93.1055 109.495 91.5388 113.881 90.6384 118.243ZM79.3004 94.5296C79.3004 91.8926 82.5102 89.0665 84.4134 85.4076C86.2997 89.2736 89.5264 91.8926 89.5264 94.5296C89.5264 97.1666 87.2372 99.305 84.4134 99.305C81.5896 99.3038 79.3004 97.1666 79.3004 94.5296Z" stroke="#DB3525" stroke-width="2" stroke-miterlimit="10"/>
</svg>
