<svg width="168" height="167" viewBox="0 0 168 167" fill="none" xmlns="http://www.w3.org/2000/svg">
<circle cx="84" cy="83.5" r="83.5" fill="#FDF5F4"/>
<path d="M57.6428 66.5638C57.6428 64.6781 59.0524 63.1428 60.7857 63.1428H114.643C116.376 63.1428 117.785 64.6781 117.785 66.5638V104.15C117.785 106.036 116.376 107.571 114.643 107.571H60.7857C59.0524 107.571 57.6428 106.036 57.6428 104.15V66.5638Z" fill="#F1AEA8"/>
<path d="M114.643 110.714H51.7857C48.3191 110.714 45.5 107.769 45.5 104.15V57.5638C45.5 53.9448 48.3191 51 51.7857 51H114.643C118.109 51 120.928 53.9448 120.928 57.5638V104.15C120.928 107.769 118.109 110.714 114.643 110.714ZM51.7857 54.1428C50.0524 54.1428 48.6428 55.6781 48.6428 57.5638V104.15C48.6428 106.036 50.0524 107.571 51.7857 107.571H114.643C116.376 107.571 117.785 106.036 117.785 104.15V57.5638C117.785 55.6781 116.376 54.1428 114.643 54.1428H51.7857ZM105.214 117H61.2142C60.7975 117 60.3978 116.834 60.1031 116.54C59.8084 116.245 59.6428 115.845 59.6428 115.428C59.6428 115.012 59.8084 114.612 60.1031 114.317C60.3978 114.023 60.7975 113.857 61.2142 113.857H105.214C105.631 113.857 106.031 114.023 106.325 114.317C106.62 114.612 106.786 115.012 106.786 115.428C106.786 115.845 106.62 116.245 106.325 116.54C106.031 116.834 105.631 117 105.214 117Z" fill="#DB3525"/>
<path d="M83.2141 117C82.7974 117 82.3977 116.834 82.103 116.54C81.8083 116.245 81.6427 115.845 81.6427 115.429V109.143C81.6427 108.726 81.8083 108.326 82.103 108.032C82.3977 107.737 82.7974 107.571 83.2141 107.571C83.6309 107.571 84.0306 107.737 84.3253 108.032C84.62 108.326 84.7855 108.726 84.7855 109.143V115.429C84.7855 115.845 84.62 116.245 84.3253 116.54C84.0306 116.834 83.6309 117 83.2141 117Z" fill="#DB3525"/>
<path d="M83.2145 106C84.9502 106 86.3573 104.593 86.3573 102.858C86.3573 101.122 84.9502 99.7147 83.2145 99.7147C81.4788 99.7147 80.0717 101.122 80.0717 102.858C80.0717 104.593 81.4788 106 83.2145 106Z" fill="#DB3525"/>
<path d="M47.071 95.0001H119.357V98.143H47.071V95.0001Z" fill="#DB3525"/>
</svg>
