<svg width="168" height="167" viewBox="0 0 168 167" fill="none" xmlns="http://www.w3.org/2000/svg">
<circle cx="84" cy="83.5" r="83.5" fill="#FDF5F4"/>
<path d="M118.692 84.3929L111.84 71.0263C111.503 70.24 110.829 69.6784 109.93 69.3414L98.3608 64.9607C97.9115 64.7361 97.3499 64.7361 96.9006 64.7361L88.7009 65.41C88.1393 65.41 87.4653 65.6347 87.016 65.9717L71.5152 76.6425C69.4934 78.1027 68.8194 80.7985 69.9427 82.9327C70.6166 84.1683 71.7399 85.0668 73.0878 85.4038C74.4357 85.7408 75.8959 85.4038 77.0191 84.6175L86.5667 77.8781L87.5777 90.0091L78.1424 95.1761C77.3561 95.6254 76.7945 96.2993 76.5698 97.0856L71.9645 109.104C71.5152 110.34 71.7399 111.8 72.3015 112.923C72.9754 114.047 74.0987 114.945 75.3343 115.282C77.8054 115.844 80.1642 114.496 80.9505 112.249L84.5449 104.05C84.6572 103.713 84.8819 103.488 85.2188 103.263L93.7555 99.1074L97.7992 116.181C97.9115 116.742 98.1362 117.304 98.4731 117.753H51.5214C50.9598 117.753 50.3982 118.203 50.3982 118.877C50.3982 119.438 50.8475 120 51.5214 120H106.673C107.234 120 107.796 119.551 107.796 118.877C107.796 118.315 107.347 117.753 106.673 117.753C107.347 116.742 107.684 115.507 107.459 114.384L103.752 92.031L103.64 77.6534L104.763 77.8781C105.213 77.9904 105.55 78.215 105.662 78.552L110.717 88.5489C111.278 89.6722 112.289 90.5708 113.637 90.9077C114.873 91.2447 116.22 91.0201 117.231 90.2338C119.029 88.8859 119.703 86.4147 118.692 84.3929ZM115.996 88.3243C115.434 88.6612 114.76 88.7736 114.199 88.6612C113.525 88.5489 113.075 88.0996 112.738 87.538L107.684 77.5411C107.234 76.5302 106.336 75.8562 105.213 75.6316L102.741 75.1823C102.405 75.07 102.068 75.1823 101.843 75.4069C101.618 75.6316 101.394 75.9686 101.394 76.3055L101.506 92.1433C101.506 92.2556 101.506 92.2556 101.506 92.368L105.213 114.833C105.325 115.507 105.1 116.293 104.651 116.855C104.202 117.416 103.528 117.753 102.854 117.866H102.629C101.394 117.978 100.158 117.079 99.821 115.844L95.5527 97.4226C95.4404 97.0856 95.2157 96.8609 94.9911 96.6363C94.8788 96.524 94.6541 96.524 94.5418 96.524C94.4295 96.524 94.2048 96.524 94.0925 96.6363L84.3202 101.242C83.534 101.691 82.86 102.365 82.523 103.151L78.9287 111.351C78.4794 112.586 77.1315 113.373 75.8959 113.036C75.2219 112.923 74.548 112.474 74.211 111.8C73.874 111.126 73.7617 110.452 73.9864 109.778L78.5917 97.9842C78.704 97.6472 78.9287 97.4226 79.1533 97.1979L89.1502 91.5817C89.4872 91.357 89.7118 91.0201 89.7118 90.5708L88.4763 75.8562C88.4763 75.5193 88.2516 75.1823 87.8023 74.9576C87.4653 74.8453 87.016 74.8453 86.6791 75.07L75.5589 82.8204C74.885 83.2697 74.0987 83.382 73.3124 83.2697C72.5261 83.045 71.8522 82.5957 71.5152 81.9218C70.8413 80.6862 71.2906 79.226 72.4138 78.4397L87.9146 67.7689C88.1393 67.6565 88.3639 67.5442 88.5886 67.5442L96.7883 66.8703C97.0129 66.8703 97.1253 66.8703 97.3499 66.9826L108.919 71.3632C109.256 71.4756 109.481 71.7002 109.593 72.0372L116.445 85.4038C117.231 86.4147 116.894 87.6503 115.996 88.3243Z" fill="#DB3525"/>
<path d="M115.996 88.3246C115.434 88.6616 114.76 88.7739 114.199 88.6616C113.525 88.5493 113.076 88.1 112.739 87.5383L107.684 77.5414C107.235 76.5305 106.336 75.8566 105.213 75.6319L102.742 75.1826C102.405 75.0703 102.068 75.1826 101.843 75.4073C101.618 75.6319 101.394 75.9689 101.394 76.3059L101.506 92.1437C101.506 92.256 101.506 92.256 101.506 92.3683L105.213 114.833C105.325 115.507 105.1 116.293 104.651 116.855C104.202 117.417 103.528 117.754 102.854 117.866H102.629C101.394 117.978 100.158 117.08 99.8212 115.844L95.5529 97.4229C95.4405 97.0859 95.2159 96.8613 94.9912 96.6366C94.8789 96.5243 94.6543 96.5243 94.5419 96.5243C94.4296 96.5243 94.205 96.5243 94.0927 96.6366L84.3204 101.242C83.5341 101.691 82.8602 102.365 82.5232 103.151L78.9288 111.351C78.4795 112.587 77.1316 113.373 75.8961 113.036C75.2221 112.924 74.5482 112.474 74.2112 111.8C73.8742 111.127 73.7619 110.453 73.9865 109.779L78.5918 97.9845C78.7042 97.6476 78.9288 97.4229 79.1535 97.1983L89.1504 91.582C89.4873 91.3574 89.712 91.0204 89.712 90.5711L88.4764 75.8566C88.4764 75.5196 88.2518 75.1826 87.8025 74.958C87.4655 74.8457 87.0162 74.8457 86.6792 75.0703L75.5591 82.8207C74.8851 83.27 74.0989 83.3823 73.3126 83.27C72.5263 83.0454 71.8524 82.5961 71.5154 81.9221C70.8414 80.6865 71.2907 79.2263 72.414 78.44L87.9148 67.7692C88.1394 67.6569 88.3641 67.5446 88.5887 67.5446L96.7884 66.8706C97.0131 66.8706 97.1254 66.8706 97.3501 66.9829L108.92 71.3636C109.256 71.4759 109.481 71.7006 109.593 72.0375L116.445 85.4042C117.232 86.4151 116.895 87.6507 115.996 88.3246Z" fill="#F1AEA8"/>
<path d="M92.1836 48C87.9153 48 84.4332 51.4821 84.4332 55.7504C84.4332 60.0187 87.9153 63.5008 92.1836 63.5008C96.4519 63.5008 99.934 60.0187 99.934 55.7504C99.934 51.4821 96.4519 48 92.1836 48ZM92.1836 61.2543C89.1508 61.2543 86.6797 58.7832 86.6797 55.7504C86.6797 52.7176 89.1508 50.2465 92.1836 50.2465C95.2164 50.2465 97.6875 52.7176 97.6875 55.7504C97.7998 58.7832 95.3287 61.2543 92.1836 61.2543Z" fill="#DB3525"/>
<path d="M97.7997 55.7504C97.7997 58.7831 95.3286 61.2543 92.2958 61.2543C89.2631 61.2543 86.7919 58.7831 86.7919 55.7504C86.7919 52.7176 89.2631 50.2465 92.2958 50.2465C95.3286 50.1341 97.7997 52.7176 97.7997 55.7504Z" fill="#F1AEA8"/>
<path d="M67.1349 94.2779C65.2254 92.3684 62.6419 91.2451 59.8338 91.2451C57.138 91.2451 54.4422 92.3684 52.5327 94.2779C48.489 98.3216 48.489 104.836 52.5327 108.88C54.4422 110.79 57.0257 111.913 59.8338 111.913C62.6419 111.913 65.2254 110.79 67.1349 108.88C71.0663 104.836 71.0663 98.2092 67.1349 94.2779ZM65.5623 95.7381C66.4609 96.6367 67.0226 97.6476 67.4719 98.7709C66.3486 98.6585 65.0007 98.3216 63.9898 97.3107C62.9789 96.2997 62.6419 94.9518 62.5296 93.8286C63.6528 94.2779 64.6637 94.8395 65.5623 95.7381ZM59.8338 93.3793C60.0584 93.3793 60.1708 93.3793 60.3954 93.3793C60.3954 95.1765 60.957 96.749 61.8556 97.9846L59.9461 99.8941L55.0038 94.9518C56.2394 93.9409 58.0366 93.3793 59.8338 93.3793ZM53.319 96.6367L58.2612 101.579L56.3517 103.489C55.1162 102.59 53.5436 102.028 51.7464 102.028C51.6341 100.119 52.0834 98.2092 53.319 96.6367ZM54.1052 107.308C53.2066 106.409 52.5327 105.286 52.1957 104.275C53.319 104.387 54.6669 104.724 55.6778 105.735C56.6887 106.746 57.0257 108.094 57.138 109.217C56.0148 108.768 54.8915 108.094 54.1052 107.308ZM59.8338 109.666C59.7215 109.666 59.4968 109.666 59.3845 109.666C59.3845 107.869 58.8229 106.297 57.9243 105.061L59.8338 103.152L64.7761 108.094C63.3159 109.105 61.631 109.666 59.8338 109.666ZM66.2363 106.409L61.294 101.467L63.2035 99.5571C64.4391 100.456 66.0116 100.905 67.8088 101.017C68.0335 102.927 67.4719 104.836 66.2363 106.409Z" fill="#DB3525"/>
<path d="M57.138 109.217C56.0148 108.88 55.0039 108.206 54.1053 107.308C53.2067 106.409 52.5327 105.286 52.1958 104.275C53.319 104.387 54.6669 104.724 55.6778 105.735C56.5764 106.634 57.0257 107.982 57.138 109.217ZM67.4719 98.7709C66.3487 98.6586 65.0008 98.3216 63.9898 97.3107C62.9789 96.2998 62.6419 94.9519 62.5296 93.8286C63.6529 94.1656 64.6638 94.8395 65.5624 95.7381C66.461 96.6367 67.0226 97.6477 67.4719 98.7709Z" fill="#F1AEA8"/>
<path d="M58.261 101.467L56.3515 103.376C55.1159 102.59 53.5434 102.028 51.7462 102.028C51.6339 100.119 52.1955 98.2091 53.4311 96.6366L58.261 101.467ZM64.6635 107.981C63.2033 109.105 61.5184 109.666 59.7213 109.666C59.6089 109.666 59.3843 109.666 59.272 109.666C59.272 107.869 58.7103 106.297 57.8117 105.061L59.7213 103.151L64.6635 107.981ZM66.2361 106.409L61.2938 101.467L63.2033 99.557C64.4389 100.456 66.0114 100.905 67.8086 101.017C68.0333 102.927 67.4717 104.836 66.2361 106.409ZM61.7431 97.9845L59.8336 99.894L54.8913 94.9517C56.3515 93.8285 58.0364 93.2668 59.8336 93.2668C60.0582 93.2668 60.1706 93.2668 60.3952 93.2668C60.2829 95.1764 60.8445 96.7489 61.7431 97.9845Z" fill="#F1AEA8"/>
</svg>
