<svg width="168" height="167" viewBox="0 0 168 167" fill="none" xmlns="http://www.w3.org/2000/svg">
<circle cx="84" cy="83.5" r="83.5" fill="#FDF5F4"/>
<path d="M57.5 65C57.5 63.8954 58.3954 63 59.5 63H121.5C122.605 63 123.5 63.8954 123.5 65V111H57.5V65Z" fill="#F1AEA8"/>
<path d="M80 111V102.273L75.75 106.636L65.5133 99.6294C64.2009 98.7311 64.0153 96.8666 65.125 95.7273V95.7273M105.5 111V91.1818C105.5 90.0772 104.605 89.1818 103.5 89.1818H81.2506C80.4855 89.1818 79.7874 89.6183 79.4525 90.3062L75.75 97.9091L69.2223 94.558C68.0501 93.9562 66.6225 94.1898 65.7031 95.1337L65.125 95.7273M97 97.9091V111M54.5 87L65.125 95.7273" stroke="#DB3525" stroke-width="2" stroke-linecap="round" stroke-linejoin="round"/>
<path d="M46.5 56C46.5 55.4477 46.9477 55 47.5 55H121.5C122.052 55 122.5 55.4477 122.5 56V113H46.5V56Z" stroke="#DB3525" stroke-width="2"/>
<path d="M42 113C41.3469 113 40.7913 112.583 40.5854 112H128.415C128.209 112.583 127.653 113 127 113H42Z" stroke="#DB3525" stroke-width="2"/>
<circle cx="90.5" cy="75" r="8" stroke="#DB3525" stroke-width="2"/>
</svg>
