<svg width="168" height="167" viewBox="0 0 168 167" fill="none" xmlns="http://www.w3.org/2000/svg">
<circle cx="84" cy="83.5" r="83.5" fill="#FDF5F4"/>
<path d="M76.5 62C76.5 60.8954 77.3954 60 78.5 60H116.5V91C116.5 92.1046 115.605 93 114.5 93H78.5C77.3954 93 76.5 92.1046 76.5 91V62Z" fill="#F1AEA8"/>
<path d="M100.32 53.7375V54.2375H100.82H115.749C116.656 54.2375 117.383 54.9715 117.375 55.8589V55.8637V91.6725C117.375 92.5534 116.644 93.2875 115.749 93.2875V93.7875C115.749 93.2875 115.748 93.2875 115.748 93.2875H115.748H115.747H115.746H115.744H115.742H115.739H115.737H115.733H115.73H115.726H115.722H115.717H115.712H115.707H115.701H115.695H115.688H115.682H115.674H115.667H115.659H115.651H115.642H115.633H115.624H115.614H115.604H115.594H115.583H115.572H115.561H115.549H115.537H115.524H115.512H115.499H115.485H115.471H115.457H115.443H115.428H115.413H115.397H115.381H115.365H115.349H115.332H115.315H115.297H115.28H115.262H115.243H115.224H115.205H115.186H115.166H115.146H115.126H115.105H115.084H115.063H115.041H115.019H114.997H114.974H114.951H114.928H114.905H114.881H114.857H114.832H114.807H114.782H114.757H114.731H114.705H114.679H114.653H114.626H114.599H114.571H114.543H114.515H114.487H114.459H114.43H114.4H114.371H114.341H114.311H114.281H114.25H114.219H114.188H114.156H114.125H114.093H114.06H114.028H113.995H113.962H113.928H113.895H113.861H113.826H113.792H113.757H113.722H113.687H113.651H113.615H113.579H113.543H113.506H113.469H113.432H113.394H113.357H113.319H113.28H113.242H113.203H113.164H113.125H113.085H113.046H113.006H112.965H112.925H112.884H112.843H112.802H112.761H112.719H112.677H112.635H112.592H112.55H112.507H112.463H112.42H112.376H112.333H112.289H112.244H112.2H112.155H112.11H112.065H112.019H111.973H111.927H111.881H111.835H111.788H111.742H111.694H111.647H111.6H111.552H111.504H111.456H111.408H111.359H111.31H111.261H111.212H111.163H111.113H111.063H111.013H110.963H110.913H110.862H110.811H110.76H110.709H110.658H110.606H110.554H110.502H110.45H110.398H110.345H110.292H110.239H110.186H110.133H110.079H110.025H109.971H109.917H109.863H109.808H109.754H109.699H109.644H109.589H109.533H109.478H109.422H109.366H109.31H109.254H109.197H109.141H109.084H109.027H108.97H108.913H108.855H108.798H108.74H108.682H108.624H108.566H108.507H108.449H108.39H108.331H108.272H108.213H108.153H108.094H108.034H107.974H107.914H107.854H107.794H107.734H107.673H107.612H107.552H107.491H107.43H107.368H107.307H107.245H107.184H107.122H107.06H106.998H106.936H106.873H106.811H106.748H106.685H106.622H106.559H106.496H106.433H106.37H106.306H106.243H106.179H106.115H106.051H105.987H105.923H105.858H105.794H105.729H105.664H105.6H105.535H105.47H105.405H105.339H105.274H105.208H105.143H105.077H105.011H104.946H104.88H104.814H104.747H104.681H104.615H104.548H104.482H104.415H104.348H104.281H104.214H104.147H104.08H104.013H103.946H103.878H103.811H103.743H103.676H103.608H103.54H103.472H103.404H103.336H103.268H103.2H103.132H103.063H102.995H102.926H102.858H102.789H102.72H102.652H102.583H102.514H102.445H102.376H102.307H102.237H102.168H102.099H102.03H101.96H101.891H101.821H101.752H101.682H101.612H101.542H101.473H101.403H101.333H101.263H101.193H101.123H101.053H100.983H100.912H100.842H100.772H100.702H100.631H100.561H100.491H100.42H100.35H100.279H100.208H100.138H100.067H99.9966H99.9259H99.8552H99.7844H99.7137H99.6429H99.5721H99.5012H99.4303H99.3595H99.2885H99.2176H99.1467H99.0757H99.0047H98.9337H98.8627H98.7917H98.7206H98.6496H98.5785H98.5074H98.4364H98.3653H98.2942H98.2231H98.152H98.0809H98.0098H97.9386H97.8675H97.7964H97.7253H97.6542H97.5831H97.512H97.4409H97.3698H97.2987H97.2276H97.1566H97.0855H97.0145H96.9434H96.8724H96.8014H96.7304H96.6594H96.5885H96.5176H96.4466H96.3757H96.3049H96.234H96.1632H96.0924H96.0216H95.9508H95.8801H95.8094H95.7388H95.6681H95.5975H95.5269H95.4564H95.3859H95.3154H95.245H95.1746H95.1042H95.0339H94.9636H94.8934H94.8232H94.753H94.6829H94.6129H94.5428H94.4729H94.403H94.3331H94.2633H94.1935H94.1238H94.0541H93.9845H93.915H93.8455H93.776H93.7066H93.6373H93.5681H93.4989H93.4297H93.3607H93.2916H93.2227H93.1538H93.085H93.0163H92.9476H92.879H92.8105H92.742H92.6736H92.6053H92.5371H92.4689H92.4009H92.3329H92.2649H92.1971H92.1293H92.0617H91.9941H91.9266H91.8591H91.7918H91.7246H91.6574H91.5903H91.5233H91.4565H91.3897H91.323H91.2563H91.1898H91.1234H91.0571H90.9909H90.9248H90.8587H90.7928H90.727H90.6613H90.5957H90.5302H90.4648H90.3995H90.3343H90.2693H90.2043H90.1394H90.0747H90.0101H89.9456H89.8812H89.8169H89.7528H89.6887H89.6248H89.561H89.4973H89.4338H89.3703H89.307H89.2439H89.1808H89.1179H89.0551H88.9924H88.9299H88.8675H88.8052H88.7431H88.6811H88.6785H88.676H88.6735H88.6709H88.6684H88.6658H88.6633H88.6607H88.6581H88.6556H88.653H88.6504H88.6478H88.6452H88.6426H88.64H88.6374H88.6348H88.6322H88.6296H88.6269H88.6243H88.6217H88.619H88.6164H88.6137H88.6111H88.6084H88.6057H88.6031H88.6004H88.5977H88.595H88.5924H88.5897H88.587H88.5843H88.5816H88.5789H88.5762H88.5734H88.5707H88.568H88.5653H88.5626H88.5598H88.5571H88.5544H88.5516H88.5489H88.5461H88.5434H88.5406H88.5378H88.5351H88.5323H88.5295H88.5268H88.524H88.5212H88.5184H88.5156H88.5129H88.5101H88.5073H88.5045H88.5017H88.4989H88.4961H88.4933H88.4904H88.4876H88.4848H88.482H88.4792H88.4764H88.4735H88.4707H88.4679H88.465H88.4622H88.4594H88.4565H88.4537H88.4508H88.448H88.4451H88.4423H88.4394H88.4366H88.4337H88.4309H88.428H88.4252H88.4223H88.4194H88.4166H88.4137H88.4108H88.408H88.4051H88.4022H88.3993H88.3965H88.3936H88.3907H88.3878H88.3849H88.3821H88.3792H88.3763H88.3734H88.3705H88.3676H88.3648H88.3619H88.359H88.3561H88.3532H88.3503H88.3474H88.3445H88.3416H88.3387H88.3358H88.3329H88.33H88.3272H88.3243H88.3214H88.3185H88.3156H88.3127H88.3098H88.3069H88.304H88.3011H88.2982H88.2953H88.2924H88.2895H88.2866H88.2837H88.2808H88.2779H88.275H88.2721H88.2692H88.2663H88.2635H88.2606H88.2577H88.2548H88.2519H88.249H88.2461H88.2432H88.2403H88.2374H88.2346H88.2317H88.2288H88.2259H88.223H88.2202H88.2173H88.2144H88.2115H88.2087H88.2058H88.2029H88.2H88.1972H88.1943H88.1914H88.1886H88.1857H88.1829H88.18H88.1771H88.1743H88.1714H88.1686H88.1657H88.1629H88.16H88.1572H88.1544H88.1515H88.1487H88.1458H88.143H88.1402H88.1374H88.1345H88.1317H88.1289H88.1261H88.1233H88.1204H88.1176H88.1148H88.112H88.1092H88.1064H88.1036H88.1008H88.098H88.0953H88.0925H88.0897H88.0869H88.0841H88.0814H88.0786H88.0758H88.0731H88.0703H88.0676H88.0648H88.062H88.0593H88.0566H88.0538H88.0511H88.0484H88.0456H88.0429H88.0402H88.0375H88.0348H88.0321H88.0294H88.0267H88.024H88.0213H88.0186H88.0159H88.0132H88.0105H88.0079H88.0052H88.0025H87.9999H87.9972H87.9946H87.9919H87.9893H87.9867H87.984H87.9814H87.9788H87.9762H87.9736H87.971H87.9683H87.9658H87.9632H87.9606H87.958H87.9554H87.9528H87.9503H87.9477H87.9452H87.9426H87.9401H87.9375H87.935H87.9325H87.9299H87.9274H87.9249H87.9224H87.9199H87.9174H87.9149H87.9124H87.91H87.9075H87.905H87.9026H87.9001H87.8976H87.8952H87.8928H87.8903H87.8879H87.8855H87.8831H87.8807H87.8783H87.8759H87.8735H87.8711H87.8688H87.8664H87.864H87.8617H87.8593H87.857H87.8547H87.8523H87.85H87.8477H87.8454H87.8431H87.8408H87.8385H87.8362H87.834H87.8317H87.8295H87.8272H87.825H87.8227H87.8205H87.8183H87.8161H87.8139H87.8117H87.8095H87.8073H87.8051H87.803H87.8008H87.7987H87.7965H87.7944H87.7923H87.7901H87.788H87.7859H87.7838H87.7817H87.7797H87.7776H87.7755H87.7735H87.7714H87.7694H87.7674H87.7653H87.7633H87.7613H87.7593H87.7573H87.7554H87.7534H87.7514H87.7495H87.7475H87.7456H87.7437H87.7418H87.7399H87.738H87.7361H87.7342H87.7323H87.7305H87.7286H87.7268H87.7249H87.7231H87.7213H87.7195H87.7177H87.7159H87.7141H87.7124H87.7106H87.7089H87.7071H87.7054H87.7037H87.702H87.7003H87.6986H87.6969H87.6952H87.6936H87.6919H87.6903H87.6886H87.687H87.6854H87.6838H87.6822H87.6807H87.6791H87.6775H87.676H87.6744H87.6729H87.6714H87.6699H87.6684H87.6669H87.6655H87.664H87.6625H87.6611H87.6597H87.6583H87.6569H87.6555H87.6541H87.6527H87.6513H87.65H87.6487H87.6473H87.646H87.6447H87.6434H87.6421H87.6409H87.6396H87.6383H87.6371H87.6359H87.6347H87.6335H87.6323H87.6311H87.6299H87.6288H87.6276H87.6265H87.6254H87.6243H87.6232H87.6221H87.621H87.62H87.6189H87.6179H87.6169H87.6159H87.6149H87.6139H87.6129H87.612H87.611H87.6101H87.6092H87.6083H87.6074H87.6065H87.6056H87.6048H87.6039H87.6031H87.6023H87.6015H87.6007H87.5999H87.5991H87.5984H87.5977H87.5969H87.5962H87.5955H87.5948H87.5942H87.5935H87.5929H87.5922H87.5916H87.591H87.5904H87.5898H87.5893H87.5887H87.5882H87.5877H87.5872H87.5867H87.5862H87.5857H87.5853H87.5849H87.5844H87.584H87.5836H87.5833H87.5829H87.5825H87.5822H87.5819H87.5816H87.5813H87.581H87.5807H87.5805H87.5803H87.58H87.5798H87.5797H87.5795H87.5793H87.5792H87.579H87.5789H87.5788H87.5787H87.5787H87.5786H87.5786H70.3436H69.8436V93.7875V115.208C69.8436 117.238 68.199 118.881 66.1811 118.881C64.8365 118.881 63.6795 118.161 63.0449 117.09L62.6028 116.344L62.1787 117.1C61.5853 118.159 60.4741 118.881 59.1836 118.881C57.2884 118.881 55.7461 117.339 55.7461 115.444V99.9975V98.7904L54.8925 99.6439C54.2967 100.24 53.4888 100.6 52.5798 100.6C50.7747 100.6 49.2998 99.1251 49.2998 97.32V84.0675C49.2998 80.1591 52.4955 76.9625 56.4161 76.9625H58.5648H60.3725L58.8217 76.0336C56.6926 74.7582 55.2623 72.4307 55.2623 69.78C55.2623 65.9393 58.2514 62.79 62.0322 62.5162L62.4961 62.4826V62.0175V55.8637C62.4961 54.9699 63.2284 54.2375 64.1223 54.2375H79.0398H79.5398V53.7375V50.4525C79.5398 49.3689 80.417 48.5 81.4923 48.5H98.3673C99.4509 48.5 100.32 49.3771 100.32 50.4525V53.7375ZM99.7173 54.2375H100.217V53.7375V50.4525C100.217 49.4339 99.3972 48.6137 98.3786 48.6137H81.5036C80.4849 48.6137 79.6648 49.4339 79.6648 50.4525V53.7375V54.2375H80.1648H99.7173ZM69.7704 81.6107L69.7704 81.6107L69.7752 81.6085L82.3977 75.8372L82.3988 75.8367C83.0939 75.517 83.5914 74.9324 83.8238 74.2216L83.8247 74.219C84.0556 73.4989 83.9924 72.7216 83.602 72.0619C82.9055 70.8163 81.3583 70.3549 80.082 70.9724L80.082 70.9724L80.0777 70.9746L67.7972 77.0642C67.7871 77.0681 67.7773 77.071 67.7683 77.0731C67.7564 77.0757 67.7485 77.0763 67.7448 77.0763H56.4273C52.563 77.0763 49.4136 80.2245 49.4136 84.0788V97.32C49.4136 99.0699 50.8299 100.486 52.5798 100.486C54.3297 100.486 55.7461 99.0699 55.7461 97.32V84.6525C55.7461 84.6324 55.7531 84.6206 55.7596 84.614C55.7631 84.6105 55.7672 84.6076 55.7721 84.6056C55.7768 84.6036 55.7847 84.6012 55.7973 84.6012C55.8174 84.6012 55.8292 84.6083 55.8358 84.6148C55.8393 84.6183 55.8422 84.6224 55.8442 84.6273C55.8462 84.632 55.8486 84.6399 55.8486 84.6525V115.432C55.8486 117.272 57.3324 118.756 59.1723 118.756C61.0122 118.756 62.4961 117.272 62.4961 115.432V101.73C62.4961 101.71 62.5031 101.698 62.5096 101.692C62.5131 101.688 62.5172 101.685 62.5221 101.683C62.5268 101.681 62.5347 101.679 62.5473 101.679C62.5674 101.679 62.5792 101.686 62.5858 101.692C62.5893 101.696 62.5922 101.7 62.5942 101.705C62.5962 101.71 62.5986 101.717 62.5986 101.73V115.196C62.5986 117.171 64.1949 118.768 66.1698 118.768C68.1346 118.768 69.7298 117.17 69.7298 115.196V93.5063V93.4036L69.6894 93.3093C69.6753 93.2764 69.6685 93.2578 69.6647 93.2443C69.6637 93.2407 69.6631 93.238 69.6627 93.2362C69.6631 93.2345 69.6637 93.2318 69.6647 93.2282C69.6685 93.2147 69.6753 93.1961 69.6894 93.1632L69.7298 93.0689V92.9663V81.6525C69.7304 81.6506 69.7321 81.6461 69.7366 81.6395C69.7454 81.6265 69.758 81.6162 69.7704 81.6107ZM69.8436 92.685V93.185H70.3436H115.749C116.598 93.185 117.272 92.4999 117.272 91.6725V55.8637C117.272 55.0103 116.584 54.34 115.749 54.34H64.1223C63.2688 54.34 62.5986 55.0287 62.5986 55.8637V62.0175V62.4839L63.0638 62.5163C66.8423 62.7794 69.8323 65.9382 69.8323 69.78C69.8323 72.4307 68.402 74.7582 66.2729 76.0336L64.7221 76.9625H66.5298H67.6098H67.7263L67.8308 76.911L80.0258 70.9035L80.0271 70.9029C81.3556 70.2434 82.9663 70.7326 83.6891 72.0165L83.6903 72.0187C84.0826 72.7075 84.1678 73.5177 83.9308 74.2597C83.681 75.0065 83.1366 75.614 82.4272 75.9261L82.4272 75.926L82.4201 75.9293L70.1351 81.5655L69.8436 81.6993V82.02V92.685ZM62.5586 62.5975C58.5913 62.5975 55.3761 65.8262 55.3761 69.7913C55.3761 73.7574 58.5924 76.9737 62.5586 76.9737C66.5247 76.9737 69.7411 73.7574 69.7411 69.7913C69.7411 65.8262 66.5258 62.5975 62.5586 62.5975Z" fill="black" stroke="#DB3525"/>
<path d="M88 93.5V115.5" stroke="#DB3525" stroke-width="2" stroke-linecap="round"/>
<path d="M74.5 119L88 107" stroke="#DB3525" stroke-width="2" stroke-linecap="round"/>
<path d="M101.5 119L88 107" stroke="#DB3525" stroke-width="2" stroke-linecap="round"/>
<path d="M99.2175 50.4524V53.2374H80.665V50.4524C80.665 49.9861 81.0374 49.6137 81.5038 49.6137H98.3788V49.6137L98.3864 49.6136C98.8399 49.6068 99.2175 49.979 99.2175 50.4524Z" stroke="#DB3525"/>
<path d="M84.5493 71.5036L84.5507 71.506C85.066 72.4336 85.1836 73.5425 84.8722 74.5414L84.8693 74.5507L84.8692 74.5507C84.534 75.5563 83.7979 76.3869 82.8225 76.8173L70.8324 82.3183V92.1626H115.749C116.042 92.1626 116.272 91.9293 116.272 91.6501V55.8638C116.272 55.5739 116.043 55.3401 115.749 55.3401H64.1224C63.8324 55.3401 63.5986 55.5698 63.5986 55.8638V61.5655C67.6737 62.0907 70.8324 65.5668 70.8324 69.7801C70.8324 71.9504 69.9903 73.9274 68.6194 75.4051L79.5713 69.9847L84.5493 71.5036ZM84.5493 71.5036C83.5622 69.7502 81.3707 69.0918 79.5718 69.9845L84.5493 71.5036ZM87.7924 80.4726H108.931C109.518 80.4726 109.982 79.9834 109.982 79.4213C109.982 78.8414 109.511 78.3701 108.931 78.3701H87.7924C87.2192 78.3701 86.7411 78.8235 86.7411 79.4213C86.7411 79.9766 87.1881 80.4726 87.7924 80.4726ZM89.9299 74.8138H108.931C109.504 74.8138 109.982 74.3604 109.982 73.7626C109.982 73.2006 109.518 72.7113 108.931 72.7113H89.9299C89.3679 72.7113 88.8786 73.1761 88.8786 73.7626C88.8786 74.3425 89.35 74.8138 89.9299 74.8138ZM87.7924 69.0988H108.931C109.504 69.0988 109.982 68.6454 109.982 68.0476C109.982 67.4677 109.511 66.9963 108.931 66.9963H87.7924C87.2192 66.9963 86.7411 67.4498 86.7411 68.0476C86.7411 68.6208 87.1946 69.0988 87.7924 69.0988Z" stroke="#DB3525"/>
<path d="M68.2118 77.9794L68.2245 77.974L68.2369 77.9678L80.5288 71.8724C80.5295 71.8721 80.5302 71.8718 80.5308 71.8715C81.3431 71.4797 82.3096 71.7791 82.7405 72.55C82.9586 72.9625 83.009 73.4614 82.8621 73.9107C82.7119 74.37 82.3994 74.7304 81.9696 74.9281L69.3755 80.6967C69.3745 80.6972 69.3735 80.6976 69.3725 80.698C69.0051 80.8627 68.7411 81.2347 68.7411 81.6486V92.8706C68.7076 92.9638 68.6736 93.0903 68.6736 93.2361C68.6736 93.382 68.7076 93.5085 68.7411 93.6016V115.196C68.7411 116.62 67.5912 117.767 66.1811 117.767C64.7584 117.767 63.6098 116.619 63.6098 115.196V101.73C63.6098 101.132 63.1317 100.679 62.5586 100.679C61.9608 100.679 61.5073 101.157 61.5073 101.73V115.432C61.5073 116.72 60.4712 117.756 59.1836 117.756C57.8959 117.756 56.8598 116.72 56.8598 115.432V84.6524C56.8598 84.0546 56.3817 83.6011 55.8086 83.6011C55.2107 83.6011 54.7573 84.0792 54.7573 84.6524V97.3199C54.7573 98.5175 53.7887 99.4861 52.5911 99.4861C51.3934 99.4861 50.4248 98.5175 50.4248 97.3199V84.0786C50.4248 80.7778 53.1254 78.0761 56.4386 78.0761H67.7561C67.9265 78.0761 68.0837 78.0343 68.2118 77.9794Z" stroke="#DB3525"/>
<path d="M68.7302 69.7912C68.7302 73.205 65.9616 75.9737 62.5477 75.9737C59.1339 75.9737 56.3652 73.205 56.3652 69.7912C56.3652 66.3762 59.135 63.5974 62.5477 63.5974C65.9605 63.5974 68.7302 66.3762 68.7302 69.7912Z" stroke="#DB3525"/>
<path d="M108.983 68.0476C108.983 68.057 108.981 68.0632 108.979 68.0676C108.977 68.0725 108.974 68.0778 108.968 68.0828C108.957 68.094 108.943 68.0988 108.932 68.0988H87.7929C87.7803 68.0988 87.7725 68.0965 87.7678 68.0945C87.7628 68.0924 87.7587 68.0896 87.7553 68.0861C87.7488 68.0795 87.7417 68.0677 87.7417 68.0476C87.7417 68.035 87.744 68.0271 87.746 68.0224C87.7481 68.0175 87.7509 68.0134 87.7545 68.0099C87.761 68.0034 87.7728 67.9963 87.7929 67.9963H108.932C108.959 67.9963 108.983 68.02 108.983 68.0476ZM108.983 73.7626C108.983 73.772 108.981 73.7782 108.979 73.7826C108.977 73.7875 108.974 73.7928 108.968 73.7978C108.957 73.809 108.943 73.8138 108.932 73.8138H89.9304C89.9028 73.8138 89.8792 73.7902 89.8792 73.7626C89.8792 73.7559 89.8818 73.7433 89.8962 73.7291C89.9116 73.7139 89.926 73.7113 89.9304 73.7113H108.932C108.938 73.7113 108.951 73.714 108.965 73.7283C108.98 73.7437 108.983 73.7581 108.983 73.7626ZM108.983 79.4101C108.983 79.4167 108.98 79.4294 108.966 79.4436C108.951 79.4588 108.936 79.4613 108.932 79.4613H87.7929C87.7835 79.4613 87.7773 79.4596 87.7729 79.4576C87.768 79.4555 87.7628 79.4521 87.7577 79.4469C87.7465 79.4354 87.7417 79.4213 87.7417 79.4101C87.7417 79.3975 87.744 79.3896 87.746 79.3849C87.7481 79.38 87.7509 79.3759 87.7545 79.3724C87.761 79.3659 87.7728 79.3588 87.7929 79.3588H108.932C108.959 79.3588 108.983 79.3825 108.983 79.4101Z" fill="black" stroke="#DB3525"/>
</svg>
