<svg width="168" height="167" viewBox="0 0 168 167" fill="none" xmlns="http://www.w3.org/2000/svg">
<circle cx="84" cy="83.5" r="83.5" fill="#FDF5F4"/>
<path d="M116.711 49.0335L84.5 57.8182V120L118.037 113.902C119.463 113.643 120.5 112.401 120.5 110.951V51.9278C120.5 49.9496 118.619 48.513 116.711 49.0335Z" fill="#F1AEA8"/>
<path d="M116.711 49.0335L84.5 57.8182V120L118.037 113.902C119.463 113.643 120.5 112.401 120.5 110.951V51.9278C120.5 49.9496 118.619 48.513 116.711 49.0335Z" stroke="#DB3525" stroke-width="3" stroke-linecap="round" stroke-linejoin="round"/>
<path d="M52.2894 49.0335L84.5 57.8182V120L50.9633 113.902C49.5369 113.643 48.5 112.401 48.5 110.951V51.9278C48.5 49.9496 50.3809 48.513 52.2894 49.0335Z" stroke="#DB3525" stroke-width="3" stroke-linecap="round" stroke-linejoin="round"/>
<path d="M108.5 66V102" stroke="#DB3525" stroke-width="3" stroke-linecap="round"/>
</svg>
