<svg width="168" height="167" viewBox="0 0 168 167" fill="none" xmlns="http://www.w3.org/2000/svg">
<circle cx="84" cy="83.5" r="83.5" fill="#FDF5F4"/>
<path d="M86.5 64.5L73 72.5V103L86.5 111V64.5Z" fill="#F1AEA8"/>
<path d="M64.9008 71.0256V71.6379V96.3334V96.9457L64.3008 96.8233C61.342 96.2193 58.6826 94.6116 56.7729 92.2722C54.8633 89.9328 53.8205 87.0056 53.8211 83.9858L64.9008 71.0256ZM64.9008 71.0256L64.3008 71.148M64.9008 71.0256L64.3008 71.148M64.3008 71.148C61.342 71.752 58.6826 73.3597 56.7729 75.6991C54.8633 78.0385 53.8205 80.9657 53.8211 83.9855L64.3008 71.148ZM99.5002 76.6255L99.4991 76.6244C99.3134 76.4347 99.0922 76.2835 98.848 76.1793C98.6038 76.0751 98.3415 76.02 98.0761 76.0172C97.8106 76.0144 97.5472 76.0639 97.3009 76.1629C97.0546 76.2619 96.8302 76.4084 96.6405 76.5941C96.4508 76.7798 96.2995 77.0011 96.1954 77.2452C96.0912 77.4894 96.0361 77.7517 96.0333 78.0172C96.0305 78.2826 96.08 78.546 96.179 78.7923C96.2778 79.0382 96.424 79.2623 96.6092 79.4518C96.6096 79.4521 96.6099 79.4524 96.6102 79.4528L96.2529 79.8025C97.3547 80.916 97.9728 82.4192 97.9728 83.9856L99.5002 76.6255ZM99.5002 76.6255C101.433 78.5876 102.517 81.2313 102.517 83.9856C102.517 86.74 101.433 89.3837 99.5002 91.3458L99.4991 91.3469C99.3134 91.5366 99.0922 91.6878 98.848 91.792C98.6038 91.8962 98.3415 91.9513 98.0761 91.9541C97.8106 91.9569 97.5472 91.9074 97.3009 91.8084C97.0546 91.7094 96.8302 91.5629 96.6405 91.3772C96.4508 91.1915 96.2995 90.9702 96.1954 90.7261C96.0912 90.4819 96.0361 90.2196 96.0333 89.9541C96.0305 89.6887 96.08 89.4253 96.179 89.179C96.2778 88.933 96.424 88.709 96.6093 88.5195L99.5002 76.6255ZM88.0399 54.5069L88.0398 54.5071L88.0499 54.5126C88.3657 54.6853 88.6296 54.9394 88.8142 55.2483C88.9986 55.5569 89.0974 55.909 89.1003 56.2684L89.1002 111.705L89.1003 111.711C89.1047 112.074 89.0113 112.431 88.8301 112.745C88.6488 113.059 88.3864 113.319 88.0702 113.496C87.7541 113.674 87.396 113.763 87.0334 113.755C86.6709 113.746 86.3173 113.64 86.0098 113.448L86.0096 113.448L66.4045 101.201L66.2829 101.125H66.1396C61.5939 101.125 57.2344 99.3195 54.0201 96.1052C50.8058 92.8909 49 88.5314 49 83.9856C49 79.4399 50.8058 75.0804 54.0201 71.8661C57.2344 68.6518 61.5939 66.8461 66.1396 66.8461H66.283L66.4046 66.77L86.0271 54.5028C86.3325 54.3282 86.6781 54.2363 87.0299 54.2363C87.3845 54.2363 87.7328 54.3297 88.0399 54.5069ZM84.2954 107.593L85.0604 108.071V107.169V60.8022V59.9001L84.2954 60.3782L69.1757 69.828L68.9407 69.9748V70.252V97.7193V97.9965L69.1757 98.1433L84.2954 107.593Z" fill="#DB3525" stroke="#FDF5F4"/>
<path d="M105.45 70.68L105.464 70.6696C108.961 74.2035 110.923 78.9749 110.923 83.9479C110.923 88.9396 108.946 93.7281 105.425 97.2659L105.424 97.2663C105.237 97.4547 105.015 97.6044 104.77 97.7068C104.525 97.8093 104.263 97.8625 103.997 97.8634C103.732 97.8644 103.469 97.813 103.223 97.7123C102.977 97.6116 102.754 97.4635 102.566 97.2764C102.377 97.0894 102.228 96.8671 102.125 96.6222C102.023 96.3773 101.97 96.1147 101.969 95.8492C101.968 95.5838 102.019 95.3207 102.12 95.0751C102.22 94.8295 102.369 94.6062 102.556 94.4178L102.556 94.417C105.302 91.6394 106.842 87.8913 106.842 83.9857C106.842 80.0802 105.302 76.3321 102.556 73.5545L102.556 73.5537C102.367 73.3636 102.217 73.1383 102.116 72.8906C102.014 72.6428 101.962 72.3774 101.963 72.1097C101.964 71.8419 102.018 71.5769 102.121 71.3299C102.225 71.0828 102.376 70.8585 102.566 70.6698C102.756 70.4812 102.981 70.3317 103.229 70.2301C103.477 70.1285 103.742 70.0767 104.01 70.0776C104.277 70.0786 104.542 70.1323 104.79 70.2356C105.037 70.339 105.261 70.4899 105.45 70.68Z" fill="#DB3525" stroke="#FDF5F4"/>
<path d="M108.472 100.392L108.486 100.38L108.5 100.366C110.653 98.2136 112.361 95.6579 113.527 92.8452C114.692 90.0324 115.292 87.0176 115.292 83.973C115.292 80.9284 114.692 77.9136 113.527 75.1009C112.361 72.2884 110.653 69.7329 108.501 67.5805C108.125 67.2021 107.914 66.6904 107.914 66.157C107.914 65.6239 108.124 65.1124 108.5 64.734C108.878 64.3585 109.39 64.1477 109.923 64.1477C110.456 64.1477 110.968 64.3587 111.346 64.7345C116.446 69.8384 119.31 76.7582 119.31 83.973C119.31 91.1882 116.446 98.1082 111.346 103.212L111.332 103.226L111.32 103.24C111.139 103.452 110.916 103.624 110.665 103.745C110.415 103.866 110.142 103.934 109.864 103.945C109.585 103.956 109.308 103.909 109.049 103.807C108.79 103.706 108.554 103.552 108.357 103.355C108.16 103.158 108.006 102.923 107.905 102.663C107.803 102.404 107.756 102.127 107.767 101.849C107.778 101.57 107.846 101.297 107.967 101.047C108.088 100.796 108.26 100.573 108.472 100.392Z" fill="#DB3525" stroke="#FDF5F4"/>
</svg>
