<svg width="99" height="99" viewBox="0 0 99 99" fill="none" xmlns="http://www.w3.org/2000/svg">
<rect width="99" height="99" rx="49.5" fill="#FDF5F4"/>
<path d="M39.5609 67.6303L36.1846 72.6947C36.0749 72.8594 35.8182 72.7817 35.8182 72.5838V57.608V49.7898V40.9943V28.4898C35.8182 28.3793 35.9078 28.2898 36.0182 28.2898H70.8C70.9105 28.2898 71 28.3793 71 28.4898V72.7615C71 72.9397 70.7846 73.0289 70.6586 72.9029L65.3089 67.5532C65.2197 67.464 65.0711 67.4787 65.0011 67.5837L61.3937 72.9947C61.3146 73.1135 61.1401 73.1135 61.0609 72.9947L57.4846 67.6303C57.4055 67.5116 57.231 67.5116 57.1518 67.6303L53.5444 73.0414C53.4744 73.1464 53.3259 73.1611 53.2366 73.0718L47.718 67.5532C47.6288 67.464 47.4802 67.4787 47.4102 67.5837L43.8028 72.9947C43.7236 73.1135 43.5492 73.1135 43.47 72.9947L39.8937 67.6303C39.8146 67.5116 39.6401 67.5116 39.5609 67.6303Z" fill="#F1AEA8"/>
<path d="M34.8409 40.9943H53.4091M34.8409 49.7897H62.2045M34.8409 57.6079H50.4773M28.2 24.3806H70.8C70.9105 24.3806 71 24.4702 71 24.5806V72.7614C71 72.9396 70.7846 73.0288 70.6586 72.9028L65.3089 67.5531C65.2196 67.4639 65.071 67.4786 65.001 67.5836L61.3937 72.9946C61.3145 73.1134 61.14 73.1134 61.0609 72.9946L57.4846 67.6302C57.4054 67.5115 57.2309 67.5115 57.1518 67.6302L53.5444 73.0413C53.4744 73.1463 53.3258 73.161 53.2366 73.0717L47.718 67.5531C47.6287 67.4639 47.4801 67.4786 47.4101 67.5836L43.8028 72.9946C43.7236 73.1134 43.5491 73.1134 43.47 72.9946L39.8937 67.6302C39.8145 67.5115 39.64 67.5115 39.5609 67.6302L35.9846 72.9946C35.9054 73.1134 35.7309 73.1134 35.6518 72.9946L32.0755 67.6302C31.9963 67.5115 31.8218 67.5115 31.7427 67.6302L28.3664 72.6946C28.2566 72.8593 28 72.7816 28 72.5837V24.5806C28 24.4702 28.0895 24.3806 28.2 24.3806Z" stroke="#DB3525" stroke-width="2" stroke-linecap="round"/>
</svg>
