<svg width="24" height="24" viewBox="0 0 24 24" fill="none" xmlns="http://www.w3.org/2000/svg">
<path d="M7.55566 6.44444V3C7.55566 2.44772 8.00338 2 8.55566 2H15.4446C15.9968 2 16.4446 2.44772 16.4446 3V6.44444" stroke="#331B73"/>
<path d="M7.55556 11.9999V20.9999C7.55556 21.5522 8.00327 21.9999 8.55556 21.9999H15.4444C15.9967 21.9999 16.4444 21.5522 16.4444 20.9999V11.9999M5.33333 11.9999H18.6667M5.33333 8.66656H7.55556M5 17.5554H19C20.6569 17.5554 22 16.2123 22 14.5554V9.44434C22 7.78748 20.6569 6.44434 19 6.44434H5C3.34315 6.44434 2 7.78748 2 9.44433V14.5554C2 16.2123 3.34315 17.5554 5 17.5554Z" stroke="#331B73" stroke-linecap="round"/>
</svg>
