<svg width="244" height="280" viewBox="0 0 244 280" fill="none" xmlns="http://www.w3.org/2000/svg">
<path d="M373.5 37C373.5 62.7596 367.917 97.747 358.011 133.138C348.105 168.529 333.887 204.284 316.64 231.587C299.372 258.923 279.161 277.643 257.315 279.259C235.515 280.871 211.784 265.458 187.432 223.748C163.03 181.952 139.116 155.794 116.957 138.458C94.7961 121.121 74.4129 112.625 57.1131 106.136C55.0535 105.363 53.0395 104.62 51.0724 103.893C44.7712 101.567 38.9521 99.4189 33.6634 97.0635C26.7305 93.9759 20.7499 90.5489 15.8504 85.9403C6.07812 76.7481 0.5 62.7509 0.5 37C0.5 -66.0011 83.9989 -149.5 187 -149.5C290.001 -149.5 373.5 -66.0011 373.5 37Z" stroke="#FCEBEA"/>
<path d="M399 22C399 125.277 309.5 376 212 209C114.5 42 25 125.277 25 22C25 -81.2772 108.723 -165 212 -165C315.277 -165 399 -81.2772 399 22Z" fill="#FDF5F4"/>
</svg>
