<svg width="99" height="99" viewBox="0 0 99 99" fill="none" xmlns="http://www.w3.org/2000/svg">
<rect width="99" height="99" rx="49.5" fill="#FDF5F4"/>
<path d="M74.7369 23.3445L49.5 30.2273V76L75.1789 71.3311C75.6544 71.2447 76 70.8305 76 70.3472V24.3093C76 23.6499 75.373 23.171 74.7369 23.3445Z" fill="#F1AEA8"/>
<path d="M74.7369 23.3445L49.5 30.2273V76L75.1789 71.3311C75.6544 71.2447 76 70.8305 76 70.3472V24.3093C76 23.6499 75.373 23.171 74.7369 23.3445Z" stroke="#DB3525" stroke-width="2" stroke-linecap="round" stroke-linejoin="round"/>
<path d="M24.2631 23.3445L49.5 30.2273V76L23.8211 71.3311C23.3456 71.2447 23 70.8305 23 70.3472V24.3093C23 23.6499 23.627 23.171 24.2631 23.3445Z" stroke="#DB3525" stroke-width="2" stroke-linecap="round" stroke-linejoin="round"/>
<path d="M67.1667 36.25V62.75" stroke="#DB3525" stroke-width="2" stroke-linecap="round"/>
</svg>
