<svg width="40" height="40" viewBox="0 0 40 40" fill="none" xmlns="http://www.w3.org/2000/svg">
<path d="M28.086 13.8776L28.4401 14.2306L28.086 13.8776C27.5757 14.3894 27.5248 15.1605 27.8469 15.7498C28.1454 16.2958 28.3856 16.8717 28.5636 17.468C28.7551 18.1096 29.336 18.6151 30.0566 18.6151H31C31.2761 18.6151 31.5 18.8389 31.5 19.1151V20.8859C31.5 21.162 31.2761 21.3859 31 21.3859H30.0611C29.3394 21.3859 28.7579 21.893 28.5673 22.5359L29.0466 22.678L28.5673 22.5359C28.3896 23.1352 28.1491 23.7141 27.8498 24.2629C27.5278 24.8534 27.5801 25.626 28.0928 26.1372L28.7572 26.7996C28.9528 26.9946 28.9532 27.3112 28.7581 27.5068L27.5074 28.7605C27.3124 28.956 26.9959 28.9564 26.8004 28.7615L26.1323 28.0953C25.6206 27.5852 24.8498 27.5342 24.2607 27.8559C23.7121 28.1556 23.1334 28.3964 22.5343 28.5746C21.8919 28.7655 21.3855 29.3468 21.3855 30.068V31C21.3855 31.2761 21.1616 31.5 20.8855 31.5H19.1145C18.8384 31.5 18.6145 31.2761 18.6145 31V30.0679C18.6145 29.3467 18.1083 28.7655 17.466 28.5745C16.8668 28.3962 16.2881 28.1552 15.7395 27.8553C15.1504 27.5334 14.3793 27.5843 13.8676 28.0945L13.1996 28.7605C13.0041 28.9555 12.6876 28.955 12.4926 28.7596L11.2419 27.5058C11.0468 27.3103 11.0472 26.9936 11.2428 26.7986L11.9072 26.1362C12.4199 25.625 12.4722 24.8525 12.1502 24.262C11.8509 23.7132 11.6104 23.1343 11.4327 22.535C11.2421 21.892 10.6606 21.3849 9.93888 21.3849H9C8.72386 21.3849 8.5 21.1611 8.5 20.8849V19.1141C8.5 18.838 8.72386 18.6141 9 18.6141H9.94343C10.664 18.6141 11.2449 18.1086 11.4364 17.4671C11.6146 16.8701 11.8552 16.2936 12.1541 15.7471C12.4767 15.1572 12.4254 14.385 11.9138 13.8732L11.2401 13.1991C11.0447 13.0037 11.045 12.6868 11.2407 12.4916L12.4936 11.2423C12.6891 11.0474 13.0056 11.0478 13.2006 11.2432L13.8727 11.9169C14.3839 12.4293 15.1562 12.4816 15.7465 12.1596C16.293 11.8616 16.8694 11.6219 17.466 11.4444C18.1082 11.2533 18.6145 10.6721 18.6145 9.95096V9C18.6145 8.72386 18.8384 8.5 19.1145 8.5H20.8855C21.1616 8.5 21.3855 8.72386 21.3855 9V9.95266C21.3855 10.6739 21.8919 11.2552 22.5343 11.4462C23.1309 11.6235 23.7072 11.8631 24.2536 12.1609C24.8439 12.4827 25.6161 12.4303 26.1272 11.918L26.7994 11.2442C26.9944 11.0487 27.3109 11.0483 27.5064 11.2432L28.7602 12.4934C28.9557 12.6884 28.9562 13.005 28.7612 13.2005L28.086 13.8776Z" stroke="#554F64" stroke-linejoin="round"/>
<path d="M23.1539 16.4497H17.8921" stroke="#554F64" stroke-linecap="round"/>
<path d="M23.1539 19.0806H17.8921" stroke="#554F64" stroke-linecap="round"/>
<path d="M21.8385 25.0002L18.0999 21.2616C18.0232 21.1849 18.0775 21.0538 18.186 21.0538H19.5364C20.8078 21.0538 21.8385 20.0231 21.8385 18.7518V18.7518C21.8385 17.4804 20.8078 16.4497 19.5364 16.4497H17.8921" stroke="#554F64" stroke-linecap="round"/>
</svg>
