<svg width="40" height="40" viewBox="0 0 40 40" fill="none" xmlns="http://www.w3.org/2000/svg">
<path d="M18 15V16" stroke="#554F64" stroke-linecap="round" stroke-linejoin="round"/>
<path d="M22 15V16" stroke="#554F64" stroke-linecap="round" stroke-linejoin="round"/>
<path d="M27.8571 33H12.1429C10.9594 33 10 32.0406 10 30.8571C10 26.5178 13.5178 23 17.8571 23H22.1429C26.4822 23 30 26.5178 30 30.8571C30 32.0406 29.0406 33 27.8571 33Z" stroke="#554F64" stroke-linecap="round" stroke-linejoin="round"/>
<path d="M25 18V13.8333C25 12.8208 24.1792 12 23.1667 12H20C18.8954 12 18 11.1046 18 10V11.1429C18 12.7208 16.7208 14 15.1429 14C15.064 14 15 14.064 15 14.1429V18C15 20.7614 17.2386 23 20 23C22.7614 23 25 20.7614 25 18Z" stroke="#554F64" stroke-linejoin="round"/>
<path d="M15 15V15C13.8954 15 13 14.1046 13 13V10.5556C13 8.59188 14.5919 7 16.5556 7H26.8125C26.9161 7 27 7.08395 27 7.1875V7.1875C27 8.7408 25.7408 10 24.1875 10H23M25 15V15C26.1046 15 27 14.1046 27 13V11.1818C27 11.0814 27.0814 11 27.1818 11V11C28.186 11 29 10.186 29 9.18182V9.18182C29 9.0814 28.9186 9 28.8182 9H26.5" stroke="#554F64" stroke-linecap="round"/>
<path d="M25 19C26.1046 19 27 18.1046 27 17C27 15.8954 26.1046 15 25 15" stroke="#554F64"/>
<path d="M19 19C19 19.5523 19.4477 20 20 20C20.5523 20 21 19.5523 21 19" stroke="#554F64" stroke-linecap="round"/>
<path d="M15 19C13.8954 19 13 18.1046 13 17C13 15.8954 13.8954 15 15 15" stroke="#554F64"/>
</svg>
