<svg width="40" height="40" viewBox="0 0 40 40" fill="none" xmlns="http://www.w3.org/2000/svg">
<path d="M15.5527 12L14.5527 9.33333L15.2682 9.01535C16.7745 8.3459 18.4044 8 20.0527 8V8C21.701 8 23.331 8.3459 24.8373 9.01535L25.5527 9.33333L24.5527 12" stroke="#554F64" stroke-linecap="round"/>
<path d="M25.5861 12H15.9164H14.5193C13.9855 12 13.5527 12.4328 13.5527 12.9666C13.5527 13.2029 13.6393 13.431 13.796 13.6078L14.1489 14.0059C15.273 15.2741 16.8864 16 18.581 16H21.5245C23.2191 16 24.8325 15.2741 25.9566 14.0059L26.3095 13.6078C26.4662 13.431 26.5527 13.2029 26.5527 12.9666C26.5527 12.4328 26.12 12 25.5861 12Z" stroke="#554F64" stroke-linecap="round"/>
<path d="M15.698 15.3613C15.6032 15.725 15.5527 16.1065 15.5527 16.4999C15.5527 18.9852 17.5675 20.9999 20.0527 20.9999C22.538 20.9999 24.5527 18.9852 24.5527 16.4999C24.5527 16.1065 24.5023 15.725 24.4075 15.3613" stroke="#554F64"/>
<path d="M26.3429 32C26.4798 31.4841 26.5527 30.9427 26.5527 30.3846C26.5527 26.8585 23.6426 24 20.0527 24C16.4629 24 13.5527 26.8585 13.5527 30.3846C13.5527 30.9427 13.6256 31.4841 13.7626 32" stroke="#554F64"/>
<circle cx="20.0527" cy="29.5" r="2" stroke="#554F64"/>
<path d="M22.0527 30L26.0527 29M20.0527 28V24M18.0527 30L14.0527 29" stroke="#554F64"/>
<rect x="9.90629" y="24.6124" width="4" height="5" rx="1.5" transform="rotate(15 9.90629 24.6124)" stroke="#554F64"/>
<rect x="-0.353553" y="0.612372" width="4" height="5" rx="1.5" transform="matrix(-0.965926 0.258819 0.258819 0.965926 29.6992 24.1124)" stroke="#554F64"/>
</svg>
