<svg width="40" height="40" viewBox="0 0 40 40" fill="none" xmlns="http://www.w3.org/2000/svg">
<path d="M18.5 29V26.0909L17.0833 27.5455L13.6711 25.2098C13.2336 24.9104 13.1718 24.2889 13.5417 23.9091V23.9091M27 29V23.7273C27 22.6227 26.1046 21.7273 25 21.7273H19.7506C18.9855 21.7273 18.2874 22.1638 17.9525 22.8516L17.0833 24.6364L15.1532 23.6455C14.6164 23.3699 13.9626 23.4769 13.5417 23.9091V23.9091M24.1667 24.6364V29M10 21L13.5417 23.9091" stroke="#554F64" stroke-linecap="round" stroke-linejoin="round"/>
<path d="M7.5 12C7.5 11.1716 8.17157 10.5 9 10.5H31C31.8284 10.5 32.5 11.1716 32.5 12V29.5H7.5V12Z" stroke="#554F64"/>
<mask id="path-3-inside-1_2534_5959" fill="white">
<path d="M5 29.1667C5 29.0746 5.07462 29 5.16667 29H34.8333C34.9254 29 35 29.0746 35 29.1667C35 29.6269 34.6269 30 34.1667 30H5.83333C5.3731 30 5 29.6269 5 29.1667Z"/>
</mask>
<path d="M5.16667 30H34.8333V28H5.16667V30ZM34.1667 29H5.83333V31H34.1667V29ZM5.83333 29C5.92538 29 6 29.0746 6 29.1667H4C4 30.1792 4.82081 31 5.83333 31V29ZM34 29.1667C34 29.0746 34.0746 29 34.1667 29V31C35.1792 31 36 30.1792 36 29.1667H34ZM34.8333 30C34.3731 30 34 29.6269 34 29.1667H36C36 28.5223 35.4777 28 34.8333 28V30ZM5.16667 28C4.52233 28 4 28.5223 4 29.1667H6C6 29.6269 5.6269 30 5.16667 30V28Z" fill="#554F64" mask="url(#path-3-inside-1_2534_5959)"/>
<circle cx="22" cy="17" r="2.5" stroke="#554F64"/>
</svg>
