<svg width="40" height="40" viewBox="0 0 40 40" fill="none" xmlns="http://www.w3.org/2000/svg">
<path d="M13.5 7H26C28.2091 7 30 8.79086 30 11V31" stroke="#554F64" stroke-linecap="round" stroke-linejoin="round"/>
<rect x="10.5" y="9.5" width="17" height="23" rx="1.5" stroke="#554F64"/>
<path d="M22.276 19.8375L23.0922 19.0189L21.9798 17.9097L21.1643 18.7271C20.7459 18.4491 20.2778 18.2544 19.7856 18.1536V17H18.2144V18.1528C17.7222 18.2537 17.2541 18.4486 16.8357 18.7267L16.0202 17.9093L14.9078 19.0185L15.7248 19.8359C15.4461 20.2541 15.2507 20.7221 15.1493 21.2142H14V22.7854H15.1482C15.2488 23.279 15.4439 23.7485 15.7228 24.168L14.9089 24.9795L16.0186 26.0919L16.8333 25.2796C17.2523 25.5585 17.7213 25.7539 18.2144 25.855V27H19.7856V25.855C20.2787 25.7541 20.7477 25.5588 21.1667 25.28L21.9814 26.0923L23.0911 24.9799L22.2772 24.1684C22.5561 23.7489 22.7512 23.2794 22.8518 22.7858H24V21.2146H22.8507C22.7494 20.7229 22.5543 20.2554 22.276 19.8375Z" stroke="#554F64" stroke-linejoin="round"/>
</svg>
