<svg width="40" height="40" viewBox="0 0 40 40" fill="none" xmlns="http://www.w3.org/2000/svg">
<path fill-rule="evenodd" clip-rule="evenodd" d="M11 9H16C17.1046 9 18 9.89543 18 11V16C18 17.1046 17.1046 18 16 18H11C9.89543 18 9 17.1046 9 16V11C9 9.89543 9.89543 9 11 9ZM8 11C8 9.34315 9.34315 8 11 8H16C17.6569 8 19 9.34315 19 11V16C19 17.6569 17.6569 19 16 19H11C9.34315 19 8 17.6569 8 16V11ZM11 22H16C17.1046 22 18 22.8954 18 24V29C18 30.1046 17.1046 31 16 31H11C9.89543 31 9 30.1046 9 29V24C9 22.8954 9.89543 22 11 22ZM8 24C8 22.3431 9.34315 21 11 21H16C17.6569 21 19 22.3431 19 24V29C19 30.6569 17.6569 32 16 32H11C9.34315 32 8 30.6569 8 29V24ZM29 9H24C22.8954 9 22 9.89543 22 11V16C22 17.1046 22.8954 18 24 18H29C30.1046 18 31 17.1046 31 16V11C31 9.89543 30.1046 9 29 9ZM24 8C22.3431 8 21 9.34315 21 11V16C21 17.6569 22.3431 19 24 19H29C30.6569 19 32 17.6569 32 16V11C32 9.34315 30.6569 8 29 8H24ZM24 22H29C30.1046 22 31 22.8954 31 24V29C31 30.1046 30.1046 31 29 31H24C22.8954 31 22 30.1046 22 29V24C22 22.8954 22.8954 22 24 22ZM21 24C21 22.3431 22.3431 21 24 21H29C30.6569 21 32 22.3431 32 24V29C32 30.6569 30.6569 32 29 32H24C22.3431 32 21 30.6569 21 29V24Z" fill="#554F64"/>
</svg>
