<svg width="40" height="40" viewBox="0 0 40 40" fill="none" xmlns="http://www.w3.org/2000/svg">
<path d="M18 6.5H22C22.2761 6.5 22.5 6.72386 22.5 7V7.5C22.5 8.32843 23.1716 9 24 9H25C25.2761 9 25.5 9.22386 25.5 9.5V11C25.5 11.2761 25.2761 11.5 25 11.5H15C14.7239 11.5 14.5 11.2761 14.5 11V9.5C14.5 9.22386 14.7239 9 15 9H16C16.8284 9 17.5 8.32843 17.5 7.5V7C17.5 6.72386 17.7239 6.5 18 6.5Z" stroke="#554F64"/>
<path d="M14.5 10H11C9.89543 10 9 10.8954 9 12V32C9 33.1046 9.89543 34 11 34H29C30.1046 34 31 33.1046 31 32V12C31 10.8954 30.1046 10 29 10H26" stroke="#554F64"/>
<path d="M12 19L14 21L17 17M21 20H27M21 28H27M17 26L13 30M13 26L17 30" stroke="#554F64" stroke-linecap="round" stroke-linejoin="round"/>
</svg>
