<svg width="40" height="40" viewBox="0 0 40 40" fill="none" xmlns="http://www.w3.org/2000/svg">
<path d="M12.5 16.5H22M12.5 21H26.5M12.5 25H20.5M9.2 8H30.8C30.9105 8 31 8.08954 31 8.2V32.5172C31 32.6953 30.7846 32.7846 30.6586 32.6586L28.1725 30.1725C28.0833 30.0833 27.9347 30.098 27.8647 30.203L26.1664 32.7504C26.0872 32.8691 25.9128 32.8691 25.8336 32.7504L24.1664 30.2496C24.0872 30.1309 23.9128 30.1309 23.8336 30.2496L22.1353 32.797C22.0653 32.902 21.9167 32.9167 21.8275 32.8275L19.1725 30.1725C19.0833 30.0833 18.9347 30.098 18.8647 30.203L17.1664 32.7504C17.0872 32.8691 16.9128 32.8691 16.8336 32.7504L15.1664 30.2496C15.0872 30.1309 14.9128 30.1309 14.8336 30.2496L13.1664 32.7504C13.0872 32.8691 12.9128 32.8691 12.8336 32.7504L11.1664 30.2496C11.0872 30.1309 10.9128 30.1309 10.8336 30.2496L9.36641 32.4504C9.25665 32.615 9 32.5373 9 32.3394V8.2C9 8.08954 9.08954 8 9.2 8Z" stroke="#554F64" stroke-linecap="round"/>
</svg>
