<svg width="40" height="40" viewBox="0 0 40 40" fill="none" xmlns="http://www.w3.org/2000/svg">
<rect x="8.5" y="8.5" width="23" height="23" rx="3.5" stroke="#554F64"/>
<path d="M23.9312 17.405L24.9107 16.4227L23.5758 15.0916L22.5972 16.0725C22.0951 15.7389 21.5333 15.5052 20.9427 15.3843V14H19.0573V15.3834C18.4666 15.5045 17.9049 15.7383 17.4028 16.072L16.4242 15.0912L15.0893 16.4222L16.0698 17.4031C15.7353 17.9049 15.5009 18.4665 15.3792 19.0571H14V20.9425H15.3778C15.4985 21.5348 15.7327 22.0982 16.0674 22.6016L15.0907 23.5754L16.4223 24.9102L17.4 23.9355C17.9028 24.2703 18.4655 24.5047 19.0573 24.626V26H20.9427V24.626C21.5344 24.5049 22.0972 24.2706 22.6 23.936L23.5777 24.9107L24.9093 23.5759L23.9326 22.6021C24.2673 22.0987 24.5015 21.5353 24.6222 20.9429H26V19.0575H24.6208C24.4992 18.4675 24.2651 17.9064 23.9312 17.405ZM20 22.8359C18.4388 22.8359 17.169 21.5656 17.169 20.0049C17.169 18.4443 18.4388 17.1745 20 17.1745C21.5612 17.1745 22.831 18.4439 22.831 20.0049C22.831 21.566 21.5612 22.8359 20 22.8359Z" fill="#554F64"/>
</svg>
